{"title":"Yaaran Da Katchup (2014) - 1CD - PreDVD-Rip - Punjabi - x264 - M","uid":10674515,"size":738524626,"categoryP":"video","categoryS":"movies","magnet":"?xt=urn:btih:991ff19cc271235ded80cef1020f3d8464fb058f&amp;dn=Yaaran+Da+Katchup+%282014%29+-+1CD+-+PreDVD-Rip+-+Punjabi+-+x264+-+M&amp;tr=udp%3A%2F%2Ftracker.openbittorrent.com%3A80&amp;tr=udp%3A%2F%2Fopen.demonii.com%3A1337&amp;tr=udp%3A%2F%2Ftracker.coppersurfer.tk%3A6969&amp;tr=udp%3A%2F%2Fexodus.desync.com%3A6969","seeders":3,"leechers":1,"uploader":"inovai","files":3,"time":1406923208,"description":"Cover: http://forum.primetimeshow.in/viewtopic.php?f=7&amp;t=555\n\nScreenshots:\n &lt;a href=&quot;\nhttp://img.primetimeshow.in/share.php?id=DE30_53DBD4F9&quot; rel=&quot;nofollow&quot; target=&quot;_NEW&quot;&gt;\nhttp://img.primetimeshow.in/share.php?id=DE30_53DBD4F9&lt;/a&gt;\n &lt;a href=&quot;\nhttp://img.primetimeshow.in/share.php?id=C6E0_53DBD4F9&quot; rel=&quot;nofollow&quot; target=&quot;_NEW&quot;&gt;\nhttp://img.primetimeshow.in/share.php?id=C6E0_53DBD4F9&lt;/a&gt;\n &lt;a href=&quot;\nhttp://img.primetimeshow.in/share.php?id=B2B4_53DBD4F9&quot; rel=&quot;nofollow&quot; target=&quot;_NEW&quot;&gt;\nhttp://img.primetimeshow.in/share.php?id=B2B4_53DBD4F9&lt;/a&gt;\n &lt;a href=&quot;\nhttp://img.primetimeshow.in/share.php?id=7B53_53DBD4F9&quot; rel=&quot;nofollow&quot; target=&quot;_NEW&quot;&gt;\nhttp://img.primetimeshow.in/share.php?id=7B53_53DBD4F9&lt;/a&gt;\n &lt;a href=&quot;\nhttp://img.primetimeshow.in/share.php?id=D5A9_53DBD4F9&quot; rel=&quot;nofollow&quot; target=&quot;_NEW&quot;&gt;\nhttp://img.primetimeshow.in/share.php?id=D5A9_53DBD4F9&lt;/a&gt;\n\n\nGENRE: Comedy\n\n\nGeneral Info:\n\nComplete name : Yaaran Da Katchup (2014) - 1CD - PreDVD-Rip - Punjabi - x264 - MP3 - Mafiaking - TeamTNT ExClusive.mkv\nFormat : Matroska\nFormat version : Version 4 / Version 2\nFile size : 701 MiB\nDuration : 2h 23mn\nOverall bit rate : 681 Kbps\nMovie name : Yaaran Da Katchup (2014) - 1CD - PreDVD-Rip - Punjabi - x264 - MP3 - Mafiaking - TeamTNT ExClusive\nEncoded date : UTC 2014-07-30 14:13:07\nWriting application : mkvmerge v7.0.0 ('Where We Going') 32bit built on Jun 9 2014 15:08:34\nWriting library : libebml v1.3.0 + libmatroska v1.4.1\n\n\nVideo\nID : 1\nFormat : AVC\nFormat/Info : Advanced Video Codec\nFormat profile : &lt;a class=&quot;__cf_email__&quot; href=&quot;/cdn-cgi/l/email-protection&quot; data-cfemail=&quot;a9e1c0cec1e9e59a8799&quot;&gt;[email&amp;#160;protected]&lt;/a&gt;&lt;script cf-hash='f9e31' type=&quot;text/javascript&quot;&gt;\n/* &lt;![CDATA[ */!function(){try{var t=&quot;currentScript&quot;in document?document.currentScript:function(){for(var t=document.getElementsByTagName(&quot;script&quot;),e=t.length;e--;)if(t[e].getAttribute(&quot;cf-hash&quot;))return t[e]}();if(t&amp;&amp;t.previousSibling){var e,r,n,i,c=t.previousSibling,a=c.getAttribute(&quot;data-cfemail&quot;);if(a){for(e=&quot;&quot;,r=parseInt(a.substr(0,2),16),n=2;a.length-n;n+=2)i=parseInt(a.substr(n,2),16)^r,e+=String.fromCharCode(i);e=document.createTextNode(e),c.parentNode.replaceChild(e,c)}}}catch(u){}}();/* ]]&gt; */&lt;/script&gt;\nFormat settings, CABAC : Yes\nFormat settings, ReFrames : 4 frames\nCodec ID : V_MPEG4/ISO/AVC\nDuration : 2h 23mn\nBit rate : 615 Kbps\nWidth : 640 pixels\nHeight : 272 pixels\nDisplay aspect ratio : 2.35:1\nFrame rate mode : Constant\nFrame rate : 29.970 fps\nColor space : YUV\nChroma subsampling : 4:2:0\nBit depth : 8 bits\nScan type : Progressive\nBits/(Pixel*Frame) : 0.118\nStream size : 621 MiB (89%)\nTitle : Mafiaking\nLanguage : Panjabi\nDefault : Yes\nForced : No\n\n\nAudio\nID : 2\nFormat : MPEG Audio\nFormat version : Version 2\nFormat profile : Layer 3\nMode : Joint stereo\nMode extension : MS Stereo\nCodec ID : A_MPEG/L3\nCodec ID/Hint : MP3\nDuration : 2h 23mn\nBit rate mode : Constant\nBit rate : 64.0 Kbps\nChannel(s) : 2 channels\nSampling rate : 24.0 KHz\nCompression mode : Lossy\nDelay relative to video : 80ms\nStream size : 65.9 MiB (9%)\nTitle : Mafiaking\nWriting library : LAME3.99r\nLanguage : Panjabi\nDefault : Yes\nForced : No\n\n\nSAMPLE WITH IN TORRENT \n\n","torrent":{"xt":"urn:btih:991ff19cc271235ded80cef1020f3d8464fb058f","amp;dn":"Yaaran+Da+Katchup+%282014%29+-+1CD+-+PreDVD-Rip+-+Punjabi+-+x264+-+M","amp;tr":["udp%3A%2F%2Ftracker.openbittorrent.com%3A80","udp%3A%2F%2Fopen.demonii.com%3A1337","udp%3A%2F%2Ftracker.coppersurfer.tk%3A6969","udp%3A%2F%2Fexodus.desync.com%3A6969"],"infoHash":"991ff19cc271235ded80cef1020f3d8464fb058f","infoHashBuffer":{"type":"Buffer","data":[153,31,241,156,194,113,35,93,237,128,206,241,2,15,61,132,100,251,5,143]},"announce":[],"urlList":[]}}